M48
; DRILL file {KiCad (5.1.2-1)-1} date Freitag, 24. Mai 2019 um 16:53:54
; FORMAT={-:-/ absolute / inch / decimal}
; #@! TF.CreationDate,2019-05-24T16:53:54+02:00
; #@! TF.GenerationSoftware,Kicad,Pcbnew,(5.1.2-1)-1
FMAT,2
INCH
T1C0.0157
T2C0.0197
T3C0.0315
T4C0.0315
T5C0.0394
%
G90
G05
T1
X4.6071Y-2.9469
X4.6738Y-2.9242
X4.6858Y-3.7047
X4.6872Y-3.9298
X4.6875Y-3.813
X4.6886Y-2.8842
X4.7377Y-3.476
X4.7382Y-3.5795
X4.745Y-3.88
X4.7455Y-3.7544
X4.7675Y-4.735
X4.78Y-4.3575
X4.7825Y-4.25
X4.7925Y-4.07
X4.8145Y-3.2973
X4.8486Y-3.6091
X4.8489Y-4.5006
X4.8723Y-3.2799
X4.9115Y-3.5526
X4.9117Y-3.2773
X4.9248Y-3.4185
X4.9293Y-3.6244
X4.9298Y-4.031
X4.9345Y-4.339
X4.938Y-4.0813
X4.9404Y-4.6757
X4.9511Y-3.2763
X4.9537Y-3.3531
X5.0104Y-4.33
X5.015Y-4.2167
X5.0603Y-3.5855
X5.0604Y-4.0315
X5.0607Y-3.8641
X5.0624Y-3.9737
X5.0866Y-3.8331
X5.3275Y-4.4619
X5.33Y-4.2454
X5.3315Y-4.0065
X5.3343Y-4.1871
X5.3403Y-3.7275
X5.3405Y-3.2461
X5.3436Y-3.5549
X5.389Y-4.0076
X5.3925Y-4.905
X5.4475Y-3.7354
X5.4477Y-3.3261
X5.4525Y-4.394
X5.4648Y-4.5978
X5.475Y-3.1175
X5.4901Y-4.6569
X5.5Y-3.875
X5.5026Y-3.5848
X5.5147Y-4.2846
X5.5151Y-4.2452
X5.5345Y-3.6713
X5.5494Y-4.3836
X5.5516Y-4.8123
X5.65Y-3.0
X5.6595Y-4.3734
T2
X4.7226Y-3.4142
X5.451Y-3.7795
X5.5128Y-3.2277
X5.5219Y-3.1624
X5.5266Y-4.5475
X5.549Y-3.3597
X5.5492Y-4.0568
X5.6476Y-3.5166
X5.664Y-3.6333
T3
X5.15Y-3.0
X5.15Y-3.1
X5.15Y-3.2
X5.15Y-3.3
X5.15Y-3.4
X5.15Y-3.5
X5.15Y-3.6
X5.15Y-3.7
X5.15Y-3.8
X5.15Y-3.9
X5.15Y-4.0
X5.15Y-4.1
X5.15Y-4.2
X5.15Y-4.3
X5.15Y-4.4
X5.15Y-4.5
X5.15Y-4.6
X5.15Y-4.7
X5.15Y-4.8
X5.15Y-4.9
X5.75Y-3.0
X5.75Y-3.1
X5.75Y-3.2
X5.75Y-3.3
X5.75Y-3.4
X5.75Y-3.5
X5.75Y-3.6
X5.75Y-3.7
X5.75Y-3.8
X5.75Y-3.9
X5.75Y-4.0
X5.75Y-4.1
X5.75Y-4.2
X5.75Y-4.3
X5.75Y-4.4
X5.75Y-4.5
X5.75Y-4.6
X5.75Y-4.7
X5.75Y-4.8
X5.75Y-4.9
T4
X4.67Y-4.81
X4.67Y-4.91
X4.97Y-4.81
X4.97Y-4.91
T5
X5.25Y-3.0
X5.25Y-3.1
X5.25Y-3.2
X5.25Y-3.3
X5.25Y-3.4
X5.25Y-3.5
X5.25Y-3.6
X5.25Y-3.7
X5.25Y-3.8
X5.25Y-3.9
X5.25Y-4.0
X5.25Y-4.1
X5.25Y-4.2
X5.25Y-4.3
X5.25Y-4.4
X5.25Y-4.5
X5.25Y-4.6
X5.25Y-4.7
X5.25Y-4.8
X5.25Y-4.9
X4.69Y-2.69
X4.69Y-2.79
X4.79Y-2.69
X4.79Y-2.79
X4.89Y-2.69
X4.89Y-2.79
X4.99Y-2.69
X4.99Y-2.79
X5.09Y-2.69
X5.09Y-2.79
X5.19Y-2.69
X5.19Y-2.79
X5.29Y-2.69
X5.29Y-2.79
X5.39Y-2.69
X5.39Y-2.79
X5.49Y-2.69
X5.49Y-2.79
X5.59Y-2.69
X5.59Y-2.79
X5.69Y-2.69
X5.69Y-2.79
X5.79Y-2.69
X5.79Y-2.79
X4.7075Y-4.165
X4.7075Y-4.265
X4.7075Y-4.365
X4.7075Y-4.535
X4.7075Y-4.635
X5.85Y-3.0
X5.85Y-3.1
X5.85Y-3.2
X5.85Y-3.3
X5.85Y-3.4
X5.85Y-3.5
X5.85Y-3.6
X5.85Y-3.7
X5.85Y-3.8
X5.85Y-3.9
X5.85Y-4.0
X5.85Y-4.1
X5.85Y-4.2
X5.85Y-4.3
X5.85Y-4.4
X5.85Y-4.5
X5.85Y-4.6
X5.85Y-4.7
X5.85Y-4.8
X5.85Y-4.9
T0
M30
